<svg xmlns="http://www.w3.org/2000/svg" xmlns:xlink="http://www.w3.org/1999/xlink" version="1.1" width="511.81626pt" height="204.88758pt" viewBox="0 0 511.81626 204.88758">
<defs>
<clipPath id="clip_0">
<path transform="matrix(1,0,0,-1,0,204.88758)" d="M41.85625 37.770097H504.61628V180.39569H41.85625Z"/>
</clipPath>
<clipPath id="clip_1">
<path transform="matrix(1,0,0,-1,0,204.88758)" d="M41.85625 37.770097H504.61628V180.39569H41.85625Z"/>
</clipPath>
<clipPath id="clip_2">
<path transform="matrix(1,0,0,-1,0,204.88758)" d="M41.85625 37.770097H504.61628V180.39569H41.85625Z"/>
</clipPath>
<clipPath id="clip_3">
<path transform="matrix(1,0,0,-1,0,204.88758)" d="M41.85625 37.770097H504.61628V180.39569H41.85625Z"/>
</clipPath>
<clipPath id="clip_4">
<path transform="matrix(1,0,0,-1,0,204.88758)" d="M41.85625 37.770097H504.61628V180.39569H41.85625Z"/>
</clipPath>
<clipPath id="clip_5">
<path transform="matrix(1,0,0,-1,0,204.88758)" d="M41.85625 37.770097H504.61628V180.39569H41.85625Z"/>
</clipPath>
<clipPath id="clip_6">
<path transform="matrix(1,0,0,-1,0,204.88758)" d="M41.85625 37.770097H504.61628V180.39569H41.85625Z"/>
</clipPath>
<clipPath id="clip_7">
<path transform="matrix(1,0,0,-1,0,204.88758)" d="M41.85625 37.770097H504.61628V180.39569H41.85625Z"/>
</clipPath>
<clipPath id="clip_8">
<path transform="matrix(1,0,0,-1,0,204.88758)" d="M41.85625 37.770097H504.61628V180.39569H41.85625Z"/>
</clipPath>
<clipPath id="clip_9">
<path transform="matrix(1,0,0,-1,0,204.88758)" d="M41.85625 37.770097H504.61628V180.39569H41.85625Z"/>
</clipPath>
<clipPath id="clip_10">
<path transform="matrix(1,0,0,-1,0,204.88758)" d="M41.85625 37.770097H504.61628V180.39569H41.85625Z"/>
</clipPath>
<clipPath id="clip_11">
<path transform="matrix(1,0,0,-1,0,204.88758)" d="M41.85625 37.770097H504.61628V180.39569H41.85625Z"/>
</clipPath>
<clipPath id="clip_12">
<path transform="matrix(1,0,0,-1,0,204.88758)" d="M41.85625 37.770097H504.61628V180.39569H41.85625Z"/>
</clipPath>
<clipPath id="clip_13">
<path transform="matrix(1,0,0,-1,0,204.88758)" d="M41.85625 37.770097H504.61628V180.39569H41.85625Z"/>
</clipPath>
<clipPath id="clip_14">
<path transform="matrix(1,0,0,-1,0,204.88758)" d="M41.85625 37.770097H504.61628V180.39569H41.85625Z"/>
</clipPath>
<clipPath id="clip_15">
<path transform="matrix(1,0,0,-1,0,204.88758)" d="M41.85625 37.770097H504.61628V180.39569H41.85625Z"/>
</clipPath>
<clipPath id="clip_16">
<path transform="matrix(1,0,0,-1,0,204.88758)" d="M41.85625 37.770097H504.61628V180.39569H41.85625Z"/>
</clipPath>
<clipPath id="clip_17">
<path transform="matrix(1,0,0,-1,0,204.88758)" d="M41.85625 37.770097H504.61628V180.39569H41.85625Z"/>
</clipPath>
<clipPath id="clip_18">
<path transform="matrix(1,0,0,-1,0,204.88758)" d="M41.85625 37.770097H504.61628V180.39569H41.85625Z"/>
</clipPath>
<clipPath id="clip_19">
<path transform="matrix(1,0,0,-1,0,204.88758)" d="M41.85625 37.770097H504.61628V180.39569H41.85625Z"/>
</clipPath>
<clipPath id="clip_20">
<path transform="matrix(1,0,0,-1,0,204.88758)" d="M41.85625 37.770097H504.61628V180.39569H41.85625Z"/>
</clipPath>
<clipPath id="clip_21">
<path transform="matrix(1,0,0,-1,0,204.88758)" d="M41.85625 37.770097H504.61628V180.39569H41.85625Z"/>
</clipPath>
<clipPath id="clip_22">
<path transform="matrix(1,0,0,-1,0,204.88758)" d="M41.85625 37.770097H504.61628V180.39569H41.85625Z"/>
</clipPath>
<clipPath id="clip_23">
<path transform="matrix(1,0,0,-1,0,204.88758)" d="M41.85625 37.770097H504.61628V180.39569H41.85625Z"/>
</clipPath>
<clipPath id="clip_24">
<path transform="matrix(1,0,0,-1,0,204.88758)" d="M41.85625 37.770097H504.61628V180.39569H41.85625Z"/>
</clipPath>
<clipPath id="clip_25">
<path transform="matrix(1,0,0,-1,0,204.88758)" d="M41.85625 37.770097H504.61628V180.39569H41.85625Z"/>
</clipPath>
<clipPath id="clip_26">
<path transform="matrix(1,0,0,-1,0,204.88758)" d="M41.85625 37.770097H504.61628V180.39569H41.85625Z"/>
</clipPath>
<clipPath id="clip_27">
<path transform="matrix(1,0,0,-1,0,204.88758)" d="M41.85625 37.770097H504.61628V180.39569H41.85625Z"/>
</clipPath>
<clipPath id="clip_28">
<path transform="matrix(1,0,0,-1,0,204.88758)" d="M41.85625 37.770097H504.61628V180.39569H41.85625Z"/>
</clipPath>
<clipPath id="clip_29">
<path transform="matrix(1,0,0,-1,0,204.88758)" d="M41.85625 37.770097H504.61628V180.39569H41.85625Z"/>
</clipPath>
<clipPath id="clip_30">
<path transform="matrix(1,0,0,-1,0,204.88758)" d="M41.85625 37.770097H504.61628V180.39569H41.85625Z"/>
</clipPath>
<clipPath id="clip_31">
<path transform="matrix(1,0,0,-1,0,204.88758)" d="M41.85625 37.770097H504.61628V180.39569H41.85625Z"/>
</clipPath>
<clipPath id="clip_32">
<path transform="matrix(1,0,0,-1,0,204.88758)" d="M41.85625 37.770097H504.61628V180.39569H41.85625Z"/>
</clipPath>
<clipPath id="clip_33">
<path transform="matrix(1,0,0,-1,0,204.88758)" d="M41.85625 37.770097H504.61628V180.39569H41.85625Z"/>
</clipPath>
<clipPath id="clip_34">
<path transform="matrix(1,0,0,-1,0,204.88758)" d="M41.85625 37.770097H504.61628V180.39569H41.85625Z"/>
</clipPath>
<clipPath id="clip_35">
<path transform="matrix(1,0,0,-1,0,204.88758)" d="M41.85625 37.770097H504.61628V180.39569H41.85625Z"/>
</clipPath>
<clipPath id="clip_36">
<path transform="matrix(1,0,0,-1,0,204.88758)" d="M41.85625 37.770097H504.61628V180.39569H41.85625Z"/>
</clipPath>
<clipPath id="clip_37">
<path transform="matrix(1,0,0,-1,0,204.88758)" d="M41.85625 37.770097H504.61628V180.39569H41.85625Z"/>
</clipPath>
<clipPath id="clip_38">
<path transform="matrix(1,0,0,-1,0,204.88758)" d="M41.85625 37.770097H504.61628V180.39569H41.85625Z"/>
</clipPath>
<clipPath id="clip_39">
<path transform="matrix(1,0,0,-1,0,204.88758)" d="M41.85625 37.770097H504.61628V180.39569H41.85625Z"/>
</clipPath>
<clipPath id="clip_40">
<path transform="matrix(1,0,0,-1,0,204.88758)" d="M41.85625 37.770097H504.61628V180.39569H41.85625Z"/>
</clipPath>
<clipPath id="clip_41">
<path transform="matrix(1,0,0,-1,0,204.88758)" d="M41.85625 37.770097H504.61628V180.39569H41.85625Z"/>
</clipPath>
<clipPath id="clip_42">
<path transform="matrix(1,0,0,-1,0,204.88758)" d="M41.85625 37.770097H504.61628V180.39569H41.85625Z"/>
</clipPath>
<clipPath id="clip_43">
<path transform="matrix(1,0,0,-1,0,204.88758)" d="M41.85625 37.770097H504.61628V180.39569H41.85625Z"/>
</clipPath>
<clipPath id="clip_44">
<path transform="matrix(1,0,0,-1,0,204.88758)" d="M41.85625 37.770097H504.61628V180.39569H41.85625Z"/>
</clipPath>
<clipPath id="clip_45">
<path transform="matrix(1,0,0,-1,0,204.88758)" d="M41.85625 37.770097H504.61628V180.39569H41.85625Z"/>
</clipPath>
<clipPath id="clip_46">
<path transform="matrix(1,0,0,-1,0,204.88758)" d="M41.85625 37.770097H504.61628V180.39569H41.85625Z"/>
</clipPath>
<clipPath id="clip_47">
<path transform="matrix(1,0,0,-1,0,204.88758)" d="M41.85625 37.770097H504.61628V180.39569H41.85625Z"/>
</clipPath>
<clipPath id="clip_48">
<path transform="matrix(1,0,0,-1,0,204.88758)" d="M41.85625 37.770097H504.61628V180.39569H41.85625Z"/>
</clipPath>
<clipPath id="clip_49">
<path transform="matrix(1,0,0,-1,0,204.88758)" d="M41.85625 37.770097H504.61628V180.39569H41.85625Z"/>
</clipPath>
<clipPath id="clip_50">
<path transform="matrix(1,0,0,-1,0,204.88758)" d="M41.85625 37.770097H504.61628V180.39569H41.85625Z"/>
</clipPath>
<clipPath id="clip_51">
<path transform="matrix(1,0,0,-1,0,204.88758)" d="M41.85625 37.770097H504.61628V180.39569H41.85625Z"/>
</clipPath>
<clipPath id="clip_52">
<path transform="matrix(1,0,0,-1,0,204.88758)" d="M41.85625 37.770097H504.61628V180.39569H41.85625Z"/>
</clipPath>
<clipPath id="clip_53">
<path transform="matrix(1,0,0,-1,0,204.88758)" d="M41.85625 37.770097H504.61628V180.39569H41.85625Z"/>
</clipPath>
<g id="font_54_56">
<path transform="matrix(.001,0,0,.001,0,0)" d="M318 346C271 346 234 333 207 308 180 283 167 249 167 205 167 161 180 126 207 101 234 76 271 64 318 64 364 64 401 76 428 102 455 127 469 161 469 205 469 249 455 283 429 308 402 333 365 346 318 346ZM219 388C177 398 144 418 120 447 96 476 85 511 85 553 85 611 105 657 147 691 188 725 245 742 318 742 390 742 447 725 489 691 530 657 551 611 551 553 551 511 539 476 515 447 491 418 459 398 417 388 464 377 501 355 528 323 554 291 568 251 568 205 568 134 546 80 503 43 459 5 397-13 317-13 237-13 175 5 132 43 89 80 68 134 68 205 68 251 81 291 108 323 134 355 171 377 219 388ZM183 544C183 506 194 476 218 455 242 434 275 424 318 424 360 424 393 434 417 455 441 476 453 506 453 544 453 582 441 611 417 632 393 653 360 664 318 664 275 664 242 653 218 632 194 611 183 582 183 544Z"/>
</g>
<g id="font_54_48">
<path transform="matrix(.001,0,0,.001,0,0)" d="M318 664C267 664 229 639 203 589 177 539 165 464 165 364 165 264 177 189 203 139 229 89 267 64 318 64 369 64 407 89 433 139 458 189 471 264 471 364 471 464 458 539 433 589 407 639 369 664 318 664ZM318 742C399 742 461 709 505 645 548 580 570 486 570 364 570 241 548 147 505 83 461 19 399-13 317-13 235-13 173 19 130 83 87 147 66 241 66 364 66 486 87 580 130 645 173 709 236 742 318 742Z"/>
</g>
<g id="font_54_107">
<path transform="matrix(.001,0,0,.001,0,0)" d="M91 760H181V311L449 547H564L274 291 576 0H459L181 267V0H91V760Z"/>
</g>
<g id="font_54_51">
<path transform="matrix(.001,0,0,.001,0,0)" d="M406 393C453 383 490 362 516 330 542 298 556 258 556 212 556 140 531 84 482 45 432 6 362-13 271-13 240-13 208-10 176-4 144 1 110 10 76 22V117C103 101 133 89 166 81 198 73 232 69 268 69 330 69 377 81 409 105 441 129 458 165 458 212 458 254 443 288 413 312 383 336 341 349 287 349H202V430H291C339 430 376 439 402 459 428 478 441 506 441 543 441 580 427 609 401 629 374 649 336 659 287 659 260 659 231 656 200 650 169 644 135 635 98 623V711C135 721 170 729 203 734 235 739 266 742 296 742 370 742 429 725 473 691 517 657 539 611 539 553 539 513 527 479 504 451 481 423 448 403 406 393Z"/>
</g>
<g id="font_54_46">
<path transform="matrix(.001,0,0,.001,0,0)" d="M107 124H210V0H107V124Z"/>
</g>
<g id="font_54_50">
<path transform="matrix(.001,0,0,.001,0,0)" d="M192 83H536V0H73V83C110 121 161 173 226 239 290 304 331 346 348 365 380 400 402 430 414 455 426 479 433 504 433 528 433 566 419 598 392 622 365 646 330 659 286 659 255 659 222 653 188 643 154 632 117 616 78 594V694C118 710 155 722 189 730 223 738 255 742 284 742 359 742 419 723 464 685 509 647 532 597 532 534 532 504 526 475 515 449 504 422 484 390 454 354 446 344 420 317 376 272 332 227 271 164 192 83Z"/>
</g>
<g id="font_54_52">
<path transform="matrix(.001,0,0,.001,0,0)" d="M378 643 129 254H378V643ZM352 729H476V254H580V172H476V0H378V172H49V267L352 729Z"/>
</g>
<g id="font_54_54">
<path transform="matrix(.001,0,0,.001,0,0)" d="M330 404C286 404 251 388 225 358 199 328 186 286 186 234 186 181 199 139 225 109 251 79 286 64 330 64 374 64 409 79 435 109 461 139 474 181 474 234 474 286 461 328 435 358 409 388 374 404 330 404ZM526 713V623C501 635 476 644 451 650 425 656 400 659 376 659 310 659 260 637 226 593 192 549 172 482 168 394 187 422 211 444 240 459 269 474 301 482 336 482 409 482 467 459 509 415 551 371 573 310 573 234 573 159 550 99 506 54 462 9 403-13 330-13 246-13 181 19 137 83 92 147 70 241 70 364 70 479 97 571 152 639 206 707 280 742 372 742 396 742 421 739 447 735 472 730 498 723 526 713Z"/>
</g>
<g id="font_54_49">
<path transform="matrix(.001,0,0,.001,0,0)" d="M124 83H285V639L110 604V694L284 729H383V83H544V0H124V83Z"/>
</g>
<g id="font_54_115">
<path transform="matrix(.001,0,0,.001,0,0)" d="M443 531V446C417 458 391 468 364 475 336 481 308 485 279 485 234 485 200 478 178 464 156 450 145 430 145 403 145 382 153 366 169 354 185 342 217 330 265 320L296 313C360 299 405 279 432 255 458 230 472 195 472 151 472 100 452 60 412 31 372 1 316-13 246-13 216-13 186-10 154-5 122 0 89 8 54 20V113C87 95 120 82 152 74 184 65 216 61 248 61 290 61 323 68 346 82 368 96 380 117 380 144 380 168 371 187 355 200 339 213 303 226 247 238L216 245C160 257 119 275 95 299 70 323 58 356 58 399 58 450 76 490 112 518 148 546 200 560 268 560 301 560 332 557 362 552 391 547 418 540 443 531Z"/>
</g>
<g id="font_54_104">
<path transform="matrix(.001,0,0,.001,0,0)" d="M549 330V0H459V327C459 379 448 417 428 443 408 469 378 482 338 482 289 482 251 466 223 435 195 404 181 362 181 309V0H91V760H181V462C202 494 227 519 257 535 286 551 320 560 358 560 420 560 468 540 500 501 532 462 549 405 549 330Z"/>
</g>
<g id="font_54_97">
<path transform="matrix(.001,0,0,.001,0,0)" d="M343 275C270 275 220 266 192 250 164 233 150 205 150 165 150 133 160 107 181 89 202 70 231 61 267 61 317 61 357 78 387 114 417 149 432 196 432 255V275H343ZM522 312V0H432V83C411 49 385 25 355 10 325-5 287-13 243-13 187-13 142 2 109 33 76 64 60 106 60 159 60 220 80 266 122 298 163 329 224 345 306 345H432V354C432 395 418 427 391 450 364 472 326 484 277 484 245 484 215 480 185 472 155 464 127 453 100 439V522C132 534 164 544 195 550 226 556 256 560 286 560 365 560 424 539 463 498 502 457 522 395 522 312Z"/>
</g>
<g id="font_54_114">
<path transform="matrix(.001,0,0,.001,0,0)" d="M411 463C401 469 390 473 378 476 366 478 353 480 339 480 288 480 249 463 222 430 194 397 181 350 181 288V0H91V547H181V462C199 495 224 520 254 536 284 552 321 560 365 560 371 560 378 559 386 559 393 558 401 557 411 555V463Z"/>
</g>
<g id="font_54_101">
<path transform="matrix(.001,0,0,.001,0,0)" d="M562 296V252H149C153 190 171 142 205 110 238 78 284 62 344 62 378 62 412 66 444 74 476 82 509 95 541 113V28C509 14 476 3 442-3 408-9 373-13 339-13 251-13 182 12 131 62 80 112 55 181 55 268 55 357 79 428 127 481 175 533 241 560 323 560 397 560 455 536 498 489 540 441 562 377 562 296ZM472 322C471 371 457 410 431 440 404 469 368 484 324 484 274 484 234 469 204 441 174 413 156 373 152 322H472Z"/>
</g>
<g id="font_54_32">
</g>
<g id="font_54_111">
<path transform="matrix(.001,0,0,.001,0,0)" d="M306 484C258 484 220 465 192 427 164 389 150 338 150 273 150 207 163 156 191 118 219 80 257 62 306 62 354 62 392 80 420 118 448 156 462 207 462 273 462 337 448 389 420 427 392 465 354 484 306 484ZM306 560C384 560 445 534 490 484 534 433 557 363 557 273 557 183 534 113 490 63 445 12 384-13 306-13 227-13 165 12 121 63 77 113 55 183 55 273 55 363 77 433 121 484 165 534 227 560 306 560Z"/>
</g>
<g id="font_54_102">
<path transform="matrix(.001,0,0,.001,0,0)" d="M371 760V685H285C253 685 230 678 218 665 205 652 199 629 199 595V547H347V477H199V0H109V477H23V547H109V585C109 645 123 690 151 718 179 746 224 760 286 760H371Z"/>
</g>
<g id="font_54_99">
<path transform="matrix(.001,0,0,.001,0,0)" d="M488 526V442C462 456 437 466 411 473 385 480 360 484 334 484 276 484 230 465 198 428 166 391 150 339 150 273 150 206 166 154 198 117 230 80 276 62 334 62 360 62 385 65 411 72 437 79 462 90 488 104V21C462 9 436 0 410-5 383-10 354-13 324-13 242-13 176 12 128 64 79 115 55 185 55 273 55 362 79 432 128 483 177 534 244 560 330 560 358 560 385 557 411 551 437 545 463 537 488 526Z"/>
</g>
<g id="font_54_108">
<path transform="matrix(.001,0,0,.001,0,0)" d="M94 760H184V0H94V760Z"/>
</g>
<g id="font_54_45">
<path transform="matrix(.001,0,0,.001,0,0)" d="M49 314H312V234H49V314Z"/>
</g>
<g id="font_54_110">
<path transform="matrix(.001,0,0,.001,0,0)" d="M549 330V0H459V327C459 379 448 417 428 443 408 469 378 482 338 482 289 482 251 466 223 435 195 404 181 362 181 309V0H91V547H181V462C202 494 227 519 257 535 286 551 320 560 358 560 420 560 468 540 500 501 532 462 549 405 549 330Z"/>
</g>
<g id="font_54_119">
<path transform="matrix(.001,0,0,.001,0,0)" d="M42 547H132L244 120 356 547H462L574 120 686 547H776L633 0H527L409 448 291 0H185L42 547Z"/>
</g>
<g id="font_54_98">
<path transform="matrix(.001,0,0,.001,0,0)" d="M487 273C487 339 473 390 446 428 418 466 381 485 334 485 286 485 249 466 222 428 194 390 181 339 181 273 181 207 194 155 222 117 249 79 286 61 334 61 381 61 418 79 446 117 473 155 487 207 487 273ZM181 464C199 496 223 520 252 536 281 552 316 560 356 560 422 560 476 533 518 481 559 428 580 359 580 273 580 187 559 117 518 65 476 13 422-13 356-13 316-13 281-5 252 10 223 25 199 49 181 82V0H91V760H181V464Z"/>
</g>
<g id="font_54_118">
<path transform="matrix(.001,0,0,.001,0,0)" d="M30 547H125L296 88 467 547H562L357 0H235L30 547Z"/>
</g>
<g id="font_54_105">
<path transform="matrix(.001,0,0,.001,0,0)" d="M94 547H184V0H94V547ZM94 760H184V646H94V760Z"/>
</g>
<g id="font_54_116">
<path transform="matrix(.001,0,0,.001,0,0)" d="M183 702V547H368V477H183V180C183 135 189 106 201 94 213 81 238 75 276 75H368V0H276C206 0 158 13 132 39 106 65 93 112 93 180V477H27V547H93V702H183Z"/>
</g>
<g id="font_54_70">
<path transform="matrix(.001,0,0,.001,0,0)" d="M98 729H517V646H197V431H486V348H197V0H98V729Z"/>
</g>
<g id="font_54_73">
<path transform="matrix(.001,0,0,.001,0,0)" d="M98 729H197V0H98V729Z"/>
</g>
<g id="font_54_79">
<path transform="matrix(.001,0,0,.001,0,0)" d="M394 662C322 662 265 635 223 582 181 528 160 456 160 364 160 272 181 199 223 146 265 92 322 66 394 66 465 66 522 92 564 146 606 199 627 272 627 364 627 456 606 528 564 582 522 635 465 662 394 662ZM394 742C496 742 577 707 639 639 700 571 731 479 731 364 731 248 700 157 639 89 577 21 496-13 394-13 291-13 209 21 148 89 86 157 56 248 56 364 56 479 86 571 148 639 209 707 291 742 394 742Z"/>
</g>
<g id="font_54_100">
<path transform="matrix(.001,0,0,.001,0,0)" d="M454 464V760H544V0H454V82C435 49 411 25 382 10 353-5 319-13 279-13 213-13 159 13 117 65 75 117 55 187 55 273 55 359 75 428 117 481 159 533 213 560 279 560 319 560 353 552 382 536 411 520 435 496 454 464ZM148 273C148 207 161 155 188 117 215 79 252 61 300 61 348 61 385 79 413 117 440 155 454 207 454 273 454 339 440 390 413 428 385 466 348 485 300 485 252 485 215 466 188 428 161 390 148 339 148 273Z"/>
</g>
<g id="font_54_109">
<path transform="matrix(.001,0,0,.001,0,0)" d="M520 442C542 482 569 511 600 531 631 550 668 560 711 560 767 560 811 540 842 500 873 460 889 403 889 330V0H799V327C799 379 789 418 771 444 752 469 724 482 686 482 639 482 602 466 575 435 548 404 535 362 535 309V0H445V327C445 379 435 418 417 444 398 469 369 482 331 482 285 482 248 466 221 435 194 404 181 362 181 309V0H91V547H181V462C201 495 226 520 255 536 283 552 317 560 357 560 397 560 430 550 458 530 486 510 506 480 520 442Z"/>
</g>
<g id="font_54_117">
<path transform="matrix(.001,0,0,.001,0,0)" d="M85 216V547H175V219C175 167 185 129 205 103 225 77 255 64 296 64 344 64 383 79 411 110 439 141 453 183 453 237V547H543V0H453V84C431 50 405 26 377 10 348-5 315-13 277-13 214-13 166 6 134 45 101 83 85 140 85 216ZM311 560V560Z"/>
</g>
<g id="font_54_121">
<path transform="matrix(.001,0,0,.001,0,0)" d="M322-50C296-114 271-157 247-177 223-197 191-207 151-207H79V-132H132C156-132 175-126 189-114 203-102 218-75 235-31L251 9 30 547H125L296 119 467 547H562L322-50Z"/>
</g>
<g id="font_54_76">
<path transform="matrix(.001,0,0,.001,0,0)" d="M98 729H197V83H552V0H98V729Z"/>
</g>
<g id="font_54_77">
<path transform="matrix(.001,0,0,.001,0,0)" d="M98 729H245L431 233 618 729H765V0H669V640L481 140H382L194 640V0H98V729Z"/>
</g>
<g id="font_54_112">
<path transform="matrix(.001,0,0,.001,0,0)" d="M181 82V-207H91V547H181V464C199 496 223 520 252 536 281 552 316 560 356 560 422 560 476 533 518 481 559 428 580 359 580 273 580 187 559 117 518 65 476 13 422-13 356-13 316-13 281-5 252 10 223 25 199 49 181 82ZM487 273C487 339 473 390 446 428 418 466 381 485 334 485 286 485 249 466 222 428 194 390 181 339 181 273 181 207 194 155 222 117 249 79 286 61 334 61 381 61 418 79 446 117 473 155 487 207 487 273Z"/>
</g>
</defs>
<path transform="matrix(1,0,0,-1,0,204.88758)" d="M0 0H511.81626V204.88758H0Z" fill="#ffffff"/>
<path transform="matrix(1,0,0,-1,0,204.88758)" d="M41.85625 37.770097H504.61625V180.39569H41.85625Z" fill="#ffffff"/>
<g clip-path="url(#clip_0)">
<path transform="matrix(1,0,0,-1,0,204.88758)" d="M62.890798 37.770097H79.45979 62.890798Z" fill="#b2182b"/>
</g>
<g clip-path="url(#clip_1)">
<path transform="matrix(1,0,0,-1,0,204.88758)" d="M62.890798 37.770097H79.45979V94.820339H62.890798Z" fill="#2166ac"/>
</g>
<g clip-path="url(#clip_2)">
<path transform="matrix(1,0,0,-1,0,204.88758)" d="M62.890798 94.820339H79.45979V180.39569H62.890798Z" fill="#999999"/>
</g>
<g clip-path="url(#clip_3)">
<path transform="matrix(1,0,0,-1,0,204.88758)" d="M83.09689 37.770097H99.665889 83.09689Z" fill="#b2182b"/>
</g>
<g clip-path="url(#clip_4)">
<path transform="matrix(1,0,0,-1,0,204.88758)" d="M83.09689 37.770097H99.665889V94.820339H83.09689Z" fill="#2166ac"/>
</g>
<g clip-path="url(#clip_5)">
<path transform="matrix(1,0,0,-1,0,204.88758)" d="M83.09689 94.820339H99.665889V180.39569H83.09689Z" fill="#999999"/>
</g>
<g clip-path="url(#clip_6)">
<path transform="matrix(1,0,0,-1,0,204.88758)" d="M103.302989 37.770097H119.87199 103.302989Z" fill="#b2182b"/>
</g>
<g clip-path="url(#clip_7)">
<path transform="matrix(1,0,0,-1,0,204.88758)" d="M103.302989 37.770097H119.87199V94.820339H103.302989Z" fill="#2166ac"/>
</g>
<g clip-path="url(#clip_8)">
<path transform="matrix(1,0,0,-1,0,204.88758)" d="M103.302989 94.820339H119.87199V180.39569H103.302989Z" fill="#999999"/>
</g>
<g clip-path="url(#clip_9)">
<path transform="matrix(1,0,0,-1,0,204.88758)" d="M135.63274 37.770097H152.20174V101.03145H135.63274Z" fill="#b2182b"/>
</g>
<g clip-path="url(#clip_10)">
<path transform="matrix(1,0,0,-1,0,204.88758)" d="M135.63274 101.03145H152.20174V126.33599H135.63274Z" fill="#2166ac"/>
</g>
<g clip-path="url(#clip_11)">
<path transform="matrix(1,0,0,-1,0,204.88758)" d="M135.63274 126.33599H152.20174V180.39569H135.63274Z" fill="#999999"/>
</g>
<g clip-path="url(#clip_12)">
<path transform="matrix(1,0,0,-1,0,204.88758)" d="M155.83884 37.770097H172.40784V154.57048H155.83884Z" fill="#b2182b"/>
</g>
<g clip-path="url(#clip_13)">
<path transform="matrix(1,0,0,-1,0,204.88758)" d="M155.83884 154.57048H172.40784V156.3313H155.83884Z" fill="#2166ac"/>
</g>
<g clip-path="url(#clip_14)">
<path transform="matrix(1,0,0,-1,0,204.88758)" d="M155.83884 156.3313H172.40784V180.39569H155.83884Z" fill="#999999"/>
</g>
<g clip-path="url(#clip_15)">
<path transform="matrix(1,0,0,-1,0,204.88758)" d="M176.04494 37.770097H192.61392V162.74637H176.04494Z" fill="#b2182b"/>
</g>
<g clip-path="url(#clip_16)">
<path transform="matrix(1,0,0,-1,0,204.88758)" d="M176.04494 162.74637H192.61392 176.04494Z" fill="#2166ac"/>
</g>
<g clip-path="url(#clip_17)">
<path transform="matrix(1,0,0,-1,0,204.88758)" d="M176.04494 162.74637H192.61392V180.39569H176.04494Z" fill="#999999"/>
</g>
<g clip-path="url(#clip_18)">
<path transform="matrix(1,0,0,-1,0,204.88758)" d="M208.37468 37.770097H224.94368V99.68508H208.37468Z" fill="#b2182b"/>
</g>
<g clip-path="url(#clip_19)">
<path transform="matrix(1,0,0,-1,0,204.88758)" d="M208.37468 99.68508H224.94368V122.16612H208.37468Z" fill="#2166ac"/>
</g>
<g clip-path="url(#clip_20)">
<path transform="matrix(1,0,0,-1,0,204.88758)" d="M208.37468 122.16612H224.94368V180.39569H208.37468Z" fill="#999999"/>
</g>
<g clip-path="url(#clip_21)">
<path transform="matrix(1,0,0,-1,0,204.88758)" d="M228.58078 37.770097H245.14978V151.99144H228.58078Z" fill="#b2182b"/>
</g>
<g clip-path="url(#clip_22)">
<path transform="matrix(1,0,0,-1,0,204.88758)" d="M228.58078 151.99144H245.14978V154.20738H228.58078Z" fill="#2166ac"/>
</g>
<g clip-path="url(#clip_23)">
<path transform="matrix(1,0,0,-1,0,204.88758)" d="M228.58078 154.20738H245.14978V180.39569H228.58078Z" fill="#999999"/>
</g>
<g clip-path="url(#clip_24)">
<path transform="matrix(1,0,0,-1,0,204.88758)" d="M248.78688 37.770097H265.35588V158.0606H248.78688Z" fill="#b2182b"/>
</g>
<g clip-path="url(#clip_25)">
<path transform="matrix(1,0,0,-1,0,204.88758)" d="M248.78688 158.0606H265.35588V158.5392H248.78688Z" fill="#2166ac"/>
</g>
<g clip-path="url(#clip_26)">
<path transform="matrix(1,0,0,-1,0,204.88758)" d="M248.78688 158.5392H265.35588V180.39569H248.78688Z" fill="#999999"/>
</g>
<g clip-path="url(#clip_27)">
<path transform="matrix(1,0,0,-1,0,204.88758)" d="M281.11665 37.770097H297.68565V95.044948H281.11665Z" fill="#b2182b"/>
</g>
<g clip-path="url(#clip_28)">
<path transform="matrix(1,0,0,-1,0,204.88758)" d="M281.11665 95.044948H297.68565V123.12085H281.11665Z" fill="#2166ac"/>
</g>
<g clip-path="url(#clip_29)">
<path transform="matrix(1,0,0,-1,0,204.88758)" d="M281.11665 123.12085H297.68565V180.39569H281.11665Z" fill="#999999"/>
</g>
<g clip-path="url(#clip_30)">
<path transform="matrix(1,0,0,-1,0,204.88758)" d="M301.32273 37.770097H317.89173V154.46378H301.32273Z" fill="#b2182b"/>
</g>
<g clip-path="url(#clip_31)">
<path transform="matrix(1,0,0,-1,0,204.88758)" d="M301.32273 154.46378H317.89173V156.23186H301.32273Z" fill="#2166ac"/>
</g>
<g clip-path="url(#clip_32)">
<path transform="matrix(1,0,0,-1,0,204.88758)" d="M301.32273 156.23186H317.89173V180.39569H301.32273Z" fill="#999999"/>
</g>
<g clip-path="url(#clip_33)">
<path transform="matrix(1,0,0,-1,0,204.88758)" d="M321.5288 37.770097H338.0978V162.8052H321.5288Z" fill="#b2182b"/>
</g>
<g clip-path="url(#clip_34)">
<path transform="matrix(1,0,0,-1,0,204.88758)" d="M321.5288 162.8052H338.0978V163.28063H321.5288Z" fill="#2166ac"/>
</g>
<g clip-path="url(#clip_35)">
<path transform="matrix(1,0,0,-1,0,204.88758)" d="M321.5288 163.28063H338.0978V180.39569H321.5288Z" fill="#999999"/>
</g>
<g clip-path="url(#clip_36)">
<path transform="matrix(1,0,0,-1,0,204.88758)" d="M353.85859 37.770097H370.42759V85.311969H353.85859Z" fill="#b2182b"/>
</g>
<g clip-path="url(#clip_37)">
<path transform="matrix(1,0,0,-1,0,204.88758)" d="M353.85859 85.311969H370.42759V117.47263H353.85859Z" fill="#2166ac"/>
</g>
<g clip-path="url(#clip_38)">
<path transform="matrix(1,0,0,-1,0,204.88758)" d="M353.85859 117.47263H370.42759V180.39569H353.85859Z" fill="#999999"/>
</g>
<g clip-path="url(#clip_39)">
<path transform="matrix(1,0,0,-1,0,204.88758)" d="M374.06468 37.770097H390.63368V154.73502H374.06468Z" fill="#b2182b"/>
</g>
<g clip-path="url(#clip_40)">
<path transform="matrix(1,0,0,-1,0,204.88758)" d="M374.06468 154.73502H390.63368V157.12207H374.06468Z" fill="#2166ac"/>
</g>
<g clip-path="url(#clip_41)">
<path transform="matrix(1,0,0,-1,0,204.88758)" d="M374.06468 157.12207H390.63368V180.39569H374.06468Z" fill="#999999"/>
</g>
<g clip-path="url(#clip_42)">
<path transform="matrix(1,0,0,-1,0,204.88758)" d="M394.27076 37.770097H410.83976V162.92169H394.27076Z" fill="#b2182b"/>
</g>
<g clip-path="url(#clip_43)">
<path transform="matrix(1,0,0,-1,0,204.88758)" d="M394.27076 162.92169H410.83976 394.27076Z" fill="#2166ac"/>
</g>
<g clip-path="url(#clip_44)">
<path transform="matrix(1,0,0,-1,0,204.88758)" d="M394.27076 162.92169H410.83976V180.39569H394.27076Z" fill="#999999"/>
</g>
<g clip-path="url(#clip_45)">
<path transform="matrix(1,0,0,-1,0,204.88758)" d="M426.60054 37.770097H443.16954V157.01445H426.60054Z" fill="#b2182b"/>
</g>
<g clip-path="url(#clip_46)">
<path transform="matrix(1,0,0,-1,0,204.88758)" d="M426.60054 157.01445H443.16954 426.60054Z" fill="#2166ac"/>
</g>
<g clip-path="url(#clip_47)">
<path transform="matrix(1,0,0,-1,0,204.88758)" d="M426.60054 157.01445H443.16954V180.39569H426.60054Z" fill="#999999"/>
</g>
<g clip-path="url(#clip_48)">
<path transform="matrix(1,0,0,-1,0,204.88758)" d="M446.8066 37.770097H463.3756V164.34459H446.8066Z" fill="#b2182b"/>
</g>
<g clip-path="url(#clip_49)">
<path transform="matrix(1,0,0,-1,0,204.88758)" d="M446.8066 164.34459H463.3756 446.8066Z" fill="#2166ac"/>
</g>
<g clip-path="url(#clip_50)">
<path transform="matrix(1,0,0,-1,0,204.88758)" d="M446.8066 164.34459H463.3756V180.39569H446.8066Z" fill="#999999"/>
</g>
<g clip-path="url(#clip_51)">
<path transform="matrix(1,0,0,-1,0,204.88758)" d="M467.0127 37.770097H483.5817V166.43845H467.0127Z" fill="#b2182b"/>
</g>
<g clip-path="url(#clip_52)">
<path transform="matrix(1,0,0,-1,0,204.88758)" d="M467.0127 166.43845H483.5817 467.0127Z" fill="#2166ac"/>
</g>
<g clip-path="url(#clip_53)">
<path transform="matrix(1,0,0,-1,0,204.88758)" d="M467.0127 166.43845H483.5817V180.39569H467.0127Z" fill="#999999"/>
</g>
<path transform="matrix(1,0,0,-1,0,204.88758)" d="M71.17529 37.770097V34.270097"/>
<path transform="matrix(1,0,0,-1,0,204.88758)" stroke-width=".8" stroke-linecap="butt" stroke-linejoin="round" fill="none" stroke="#000000" d="M71.17529 37.770097V34.270097"/>
<use data-text="8" xlink:href="#font_54_56" transform="matrix(7,0,0,-7,64.69092,179.42998)"/>
<use data-text="0" xlink:href="#font_54_48" transform="matrix(7,0,0,-7,69.14292,179.42998)"/>
<use data-text="k" xlink:href="#font_54_107" transform="matrix(7,0,0,-7,73.59492,179.42998)"/>
<path transform="matrix(1,0,0,-1,0,204.88758)" d="M91.38139 37.770097V34.270097"/>
<path transform="matrix(1,0,0,-1,0,204.88758)" stroke-width=".8" stroke-linecap="butt" stroke-linejoin="round" fill="none" stroke="#000000" d="M91.38139 37.770097V34.270097"/>
<use data-text="3" xlink:href="#font_54_51" transform="matrix(7,0,0,-7,84.89702,179.42998)"/>
<use data-text="0" xlink:href="#font_54_48" transform="matrix(7,0,0,-7,89.34902,179.42998)"/>
<use data-text="k" xlink:href="#font_54_107" transform="matrix(7,0,0,-7,93.80102,179.42998)"/>
<path transform="matrix(1,0,0,-1,0,204.88758)" d="M111.58749 37.770097V34.270097"/>
<path transform="matrix(1,0,0,-1,0,204.88758)" stroke-width=".8" stroke-linecap="butt" stroke-linejoin="round" fill="none" stroke="#000000" d="M111.58749 37.770097V34.270097"/>
<use data-text="8" xlink:href="#font_54_56" transform="matrix(7,0,0,-7,107.32967,179.42998)"/>
<use data-text="k" xlink:href="#font_54_107" transform="matrix(7,0,0,-7,111.78168,179.42998)"/>
<path transform="matrix(1,0,0,-1,0,204.88758)" d="M143.91724 37.770097V34.270097"/>
<path transform="matrix(1,0,0,-1,0,204.88758)" stroke-width=".8" stroke-linecap="butt" stroke-linejoin="round" fill="none" stroke="#000000" d="M143.91724 37.770097V34.270097"/>
<use data-text="8" xlink:href="#font_54_56" transform="matrix(7,0,0,-7,137.43286,179.42998)"/>
<use data-text="0" xlink:href="#font_54_48" transform="matrix(7,0,0,-7,141.88486,179.42998)"/>
<use data-text="k" xlink:href="#font_54_107" transform="matrix(7,0,0,-7,146.33687,179.42998)"/>
<path transform="matrix(1,0,0,-1,0,204.88758)" d="M164.12334 37.770097V34.270097"/>
<path transform="matrix(1,0,0,-1,0,204.88758)" stroke-width=".8" stroke-linecap="butt" stroke-linejoin="round" fill="none" stroke="#000000" d="M164.12334 37.770097V34.270097"/>
<use data-text="3" xlink:href="#font_54_51" transform="matrix(7,0,0,-7,157.63896,179.42998)"/>
<use data-text="0" xlink:href="#font_54_48" transform="matrix(7,0,0,-7,162.09096,179.42998)"/>
<use data-text="k" xlink:href="#font_54_107" transform="matrix(7,0,0,-7,166.54297,179.42998)"/>
<path transform="matrix(1,0,0,-1,0,204.88758)" d="M184.32944 37.770097V34.270097"/>
<path transform="matrix(1,0,0,-1,0,204.88758)" stroke-width=".8" stroke-linecap="butt" stroke-linejoin="round" fill="none" stroke="#000000" d="M184.32944 37.770097V34.270097"/>
<use data-text="8" xlink:href="#font_54_56" transform="matrix(7,0,0,-7,180.07161,179.42998)"/>
<use data-text="k" xlink:href="#font_54_107" transform="matrix(7,0,0,-7,184.5236,179.42998)"/>
<path transform="matrix(1,0,0,-1,0,204.88758)" d="M216.65918 37.770097V34.270097"/>
<path transform="matrix(1,0,0,-1,0,204.88758)" stroke-width=".8" stroke-linecap="butt" stroke-linejoin="round" fill="none" stroke="#000000" d="M216.65918 37.770097V34.270097"/>
<use data-text="8" xlink:href="#font_54_56" transform="matrix(7,0,0,-7,210.1748,179.42998)"/>
<use data-text="0" xlink:href="#font_54_48" transform="matrix(7,0,0,-7,214.6268,179.42998)"/>
<use data-text="k" xlink:href="#font_54_107" transform="matrix(7,0,0,-7,219.07881,179.42998)"/>
<path transform="matrix(1,0,0,-1,0,204.88758)" d="M236.86528 37.770097V34.270097"/>
<path transform="matrix(1,0,0,-1,0,204.88758)" stroke-width=".8" stroke-linecap="butt" stroke-linejoin="round" fill="none" stroke="#000000" d="M236.86528 37.770097V34.270097"/>
<use data-text="3" xlink:href="#font_54_51" transform="matrix(7,0,0,-7,230.3809,179.42998)"/>
<use data-text="0" xlink:href="#font_54_48" transform="matrix(7,0,0,-7,234.8329,179.42998)"/>
<use data-text="k" xlink:href="#font_54_107" transform="matrix(7,0,0,-7,239.28491,179.42998)"/>
<path transform="matrix(1,0,0,-1,0,204.88758)" d="M257.07139 37.770097V34.270097"/>
<path transform="matrix(1,0,0,-1,0,204.88758)" stroke-width=".8" stroke-linecap="butt" stroke-linejoin="round" fill="none" stroke="#000000" d="M257.07139 37.770097V34.270097"/>
<use data-text="8" xlink:href="#font_54_56" transform="matrix(7,0,0,-7,252.81357,179.42998)"/>
<use data-text="k" xlink:href="#font_54_107" transform="matrix(7,0,0,-7,257.26557,179.42998)"/>
<path transform="matrix(1,0,0,-1,0,204.88758)" d="M289.40113 37.770097V34.270097"/>
<path transform="matrix(1,0,0,-1,0,204.88758)" stroke-width=".8" stroke-linecap="butt" stroke-linejoin="round" fill="none" stroke="#000000" d="M289.40113 37.770097V34.270097"/>
<use data-text="8" xlink:href="#font_54_56" transform="matrix(7,0,0,-7,282.91676,179.42998)"/>
<use data-text="0" xlink:href="#font_54_48" transform="matrix(7,0,0,-7,287.36875,179.42998)"/>
<use data-text="k" xlink:href="#font_54_107" transform="matrix(7,0,0,-7,291.82075,179.42998)"/>
<path transform="matrix(1,0,0,-1,0,204.88758)" d="M309.6072 37.770097V34.270097"/>
<path transform="matrix(1,0,0,-1,0,204.88758)" stroke-width=".8" stroke-linecap="butt" stroke-linejoin="round" fill="none" stroke="#000000" d="M309.6072 37.770097V34.270097"/>
<use data-text="3" xlink:href="#font_54_51" transform="matrix(7,0,0,-7,303.12284,179.42998)"/>
<use data-text="0" xlink:href="#font_54_48" transform="matrix(7,0,0,-7,307.57484,179.42998)"/>
<use data-text="k" xlink:href="#font_54_107" transform="matrix(7,0,0,-7,312.02684,179.42998)"/>
<path transform="matrix(1,0,0,-1,0,204.88758)" d="M329.81333 37.770097V34.270097"/>
<path transform="matrix(1,0,0,-1,0,204.88758)" stroke-width=".8" stroke-linecap="butt" stroke-linejoin="round" fill="none" stroke="#000000" d="M329.81333 37.770097V34.270097"/>
<use data-text="8" xlink:href="#font_54_56" transform="matrix(7,0,0,-7,325.5555,179.42998)"/>
<use data-text="k" xlink:href="#font_54_107" transform="matrix(7,0,0,-7,330.0075,179.42998)"/>
<path transform="matrix(1,0,0,-1,0,204.88758)" d="M362.14308 37.770097V34.270097"/>
<path transform="matrix(1,0,0,-1,0,204.88758)" stroke-width=".8" stroke-linecap="butt" stroke-linejoin="round" fill="none" stroke="#000000" d="M362.14308 37.770097V34.270097"/>
<use data-text="8" xlink:href="#font_54_56" transform="matrix(7,0,0,-7,355.6587,179.42998)"/>
<use data-text="0" xlink:href="#font_54_48" transform="matrix(7,0,0,-7,360.1107,179.42998)"/>
<use data-text="k" xlink:href="#font_54_107" transform="matrix(7,0,0,-7,364.56269,179.42998)"/>
<path transform="matrix(1,0,0,-1,0,204.88758)" d="M382.34916 37.770097V34.270097"/>
<path transform="matrix(1,0,0,-1,0,204.88758)" stroke-width=".8" stroke-linecap="butt" stroke-linejoin="round" fill="none" stroke="#000000" d="M382.34916 37.770097V34.270097"/>
<use data-text="3" xlink:href="#font_54_51" transform="matrix(7,0,0,-7,375.86479,179.42998)"/>
<use data-text="0" xlink:href="#font_54_48" transform="matrix(7,0,0,-7,380.31678,179.42998)"/>
<use data-text="k" xlink:href="#font_54_107" transform="matrix(7,0,0,-7,384.76878,179.42998)"/>
<path transform="matrix(1,0,0,-1,0,204.88758)" d="M402.55528 37.770097V34.270097"/>
<path transform="matrix(1,0,0,-1,0,204.88758)" stroke-width=".8" stroke-linecap="butt" stroke-linejoin="round" fill="none" stroke="#000000" d="M402.55528 37.770097V34.270097"/>
<use data-text="8" xlink:href="#font_54_56" transform="matrix(7,0,0,-7,398.29747,179.42998)"/>
<use data-text="k" xlink:href="#font_54_107" transform="matrix(7,0,0,-7,402.74946,179.42998)"/>
<path transform="matrix(1,0,0,-1,0,204.88758)" d="M434.885 37.770097V34.270097"/>
<path transform="matrix(1,0,0,-1,0,204.88758)" stroke-width=".8" stroke-linecap="butt" stroke-linejoin="round" fill="none" stroke="#000000" d="M434.885 37.770097V34.270097"/>
<use data-text="8" xlink:href="#font_54_56" transform="matrix(7,0,0,-7,428.40065,179.42998)"/>
<use data-text="0" xlink:href="#font_54_48" transform="matrix(7,0,0,-7,432.85264,179.42998)"/>
<use data-text="k" xlink:href="#font_54_107" transform="matrix(7,0,0,-7,437.30464,179.42998)"/>
<path transform="matrix(1,0,0,-1,0,204.88758)" d="M455.0911 37.770097V34.270097"/>
<path transform="matrix(1,0,0,-1,0,204.88758)" stroke-width=".8" stroke-linecap="butt" stroke-linejoin="round" fill="none" stroke="#000000" d="M455.0911 37.770097V34.270097"/>
<use data-text="3" xlink:href="#font_54_51" transform="matrix(7,0,0,-7,448.60673,179.42998)"/>
<use data-text="0" xlink:href="#font_54_48" transform="matrix(7,0,0,-7,453.05873,179.42998)"/>
<use data-text="k" xlink:href="#font_54_107" transform="matrix(7,0,0,-7,457.5107,179.42998)"/>
<path transform="matrix(1,0,0,-1,0,204.88758)" d="M475.2972 37.770097V34.270097"/>
<path transform="matrix(1,0,0,-1,0,204.88758)" stroke-width=".8" stroke-linecap="butt" stroke-linejoin="round" fill="none" stroke="#000000" d="M475.2972 37.770097V34.270097"/>
<use data-text="8" xlink:href="#font_54_56" transform="matrix(7,0,0,-7,471.0394,179.42998)"/>
<use data-text="k" xlink:href="#font_54_107" transform="matrix(7,0,0,-7,475.4914,179.42998)"/>
<path transform="matrix(1,0,0,-1,0,204.88758)" d="M41.85625 37.770097H38.35625"/>
<path transform="matrix(1,0,0,-1,0,204.88758)" stroke-width=".8" stroke-linecap="butt" stroke-linejoin="round" fill="none" stroke="#000000" d="M41.85625 37.770097H38.35625"/>
<use data-text="0" xlink:href="#font_54_48" transform="matrix(10,0,0,-10,18.95,170.91436)"/>
<use data-text="." xlink:href="#font_54_46" transform="matrix(10,0,0,-10,25.310002,170.91436)"/>
<use data-text="0" xlink:href="#font_54_48" transform="matrix(10,0,0,-10,28.490002,170.91436)"/>
<path transform="matrix(1,0,0,-1,0,204.88758)" d="M41.85625 66.29522H38.35625"/>
<path transform="matrix(1,0,0,-1,0,204.88758)" stroke-width=".8" stroke-linecap="butt" stroke-linejoin="round" fill="none" stroke="#000000" d="M41.85625 66.29522H38.35625"/>
<use data-text="0" xlink:href="#font_54_48" transform="matrix(10,0,0,-10,18.95,142.38924)"/>
<use data-text="." xlink:href="#font_54_46" transform="matrix(10,0,0,-10,25.310002,142.38924)"/>
<use data-text="2" xlink:href="#font_54_50" transform="matrix(10,0,0,-10,28.490002,142.38924)"/>
<path transform="matrix(1,0,0,-1,0,204.88758)" d="M41.85625 94.820339H38.35625"/>
<path transform="matrix(1,0,0,-1,0,204.88758)" stroke-width=".8" stroke-linecap="butt" stroke-linejoin="round" fill="none" stroke="#000000" d="M41.85625 94.820339H38.35625"/>
<use data-text="0" xlink:href="#font_54_48" transform="matrix(10,0,0,-10,18.95,113.86411)"/>
<use data-text="." xlink:href="#font_54_46" transform="matrix(10,0,0,-10,25.310002,113.86411)"/>
<use data-text="4" xlink:href="#font_54_52" transform="matrix(10,0,0,-10,28.490002,113.86411)"/>
<path transform="matrix(1,0,0,-1,0,204.88758)" d="M41.85625 123.34546H38.35625"/>
<path transform="matrix(1,0,0,-1,0,204.88758)" stroke-width=".8" stroke-linecap="butt" stroke-linejoin="round" fill="none" stroke="#000000" d="M41.85625 123.34546H38.35625"/>
<use data-text="0" xlink:href="#font_54_48" transform="matrix(10,0,0,-10,18.95,85.33899)"/>
<use data-text="." xlink:href="#font_54_46" transform="matrix(10,0,0,-10,25.310002,85.33899)"/>
<use data-text="6" xlink:href="#font_54_54" transform="matrix(10,0,0,-10,28.490002,85.33899)"/>
<path transform="matrix(1,0,0,-1,0,204.88758)" d="M41.85625 151.87058H38.35625"/>
<path transform="matrix(1,0,0,-1,0,204.88758)" stroke-width=".8" stroke-linecap="butt" stroke-linejoin="round" fill="none" stroke="#000000" d="M41.85625 151.87058H38.35625"/>
<use data-text="0" xlink:href="#font_54_48" transform="matrix(10,0,0,-10,18.95,56.813875)"/>
<use data-text="." xlink:href="#font_54_46" transform="matrix(10,0,0,-10,25.310002,56.813875)"/>
<use data-text="8" xlink:href="#font_54_56" transform="matrix(10,0,0,-10,28.490002,56.813875)"/>
<path transform="matrix(1,0,0,-1,0,204.88758)" d="M41.85625 180.39569H38.35625"/>
<path transform="matrix(1,0,0,-1,0,204.88758)" stroke-width=".8" stroke-linecap="butt" stroke-linejoin="round" fill="none" stroke="#000000" d="M41.85625 180.39569H38.35625"/>
<use data-text="1" xlink:href="#font_54_49" transform="matrix(10,0,0,-10,18.95,28.288758)"/>
<use data-text="." xlink:href="#font_54_46" transform="matrix(10,0,0,-10,25.310002,28.288758)"/>
<use data-text="0" xlink:href="#font_54_48" transform="matrix(10,0,0,-10,28.490002,28.288758)"/>
<use data-text="s" xlink:href="#font_54_115" transform="matrix(0,-8,-8,-0,13.278125,163.20311)"/>
<use data-text="h" xlink:href="#font_54_104" transform="matrix(0,-8,-8,-0,13.278125,159.03511)"/>
<use data-text="a" xlink:href="#font_54_97" transform="matrix(0,-8,-8,-0,13.278125,153.9631)"/>
<use data-text="r" xlink:href="#font_54_114" transform="matrix(0,-8,-8,-0,13.278125,149.05912)"/>
<use data-text="e" xlink:href="#font_54_101" transform="matrix(0,-8,-8,-0,13.278125,145.943)"/>
<use data-text=" " xlink:href="#font_54_32" transform="matrix(0,-8,-8,-0,13.278125,141.02298)"/>
<use data-text="o" xlink:href="#font_54_111" transform="matrix(0,-8,-8,-0,13.278125,138.47899)"/>
<use data-text="f" xlink:href="#font_54_102" transform="matrix(0,-8,-8,-0,13.278125,133.58298)"/>
<use data-text=" " xlink:href="#font_54_32" transform="matrix(0,-8,-8,-0,13.278125,130.76699)"/>
<use data-text="o" xlink:href="#font_54_111" transform="matrix(0,-8,-8,-0,13.278125,128.22299)"/>
<use data-text="r" xlink:href="#font_54_114" transform="matrix(0,-8,-8,-0,13.278125,123.32698)"/>
<use data-text="a" xlink:href="#font_54_97" transform="matrix(0,-8,-8,-0,13.278125,120.03899)"/>
<use data-text="c" xlink:href="#font_54_99" transform="matrix(0,-8,-8,-0,13.278125,115.13499)"/>
<use data-text="l" xlink:href="#font_54_108" transform="matrix(0,-8,-8,-0,13.278125,110.734989)"/>
<use data-text="e" xlink:href="#font_54_101" transform="matrix(0,-8,-8,-0,13.278125,108.51099)"/>
<use data-text="-" xlink:href="#font_54_45" transform="matrix(0,-8,-8,-0,13.278125,103.59099)"/>
<use data-text="a" xlink:href="#font_54_97" transform="matrix(0,-8,-8,-0,13.278125,100.70299)"/>
<use data-text="n" xlink:href="#font_54_110" transform="matrix(0,-8,-8,-0,13.278125,95.79899)"/>
<use data-text="s" xlink:href="#font_54_115" transform="matrix(0,-8,-8,-0,13.278125,90.72699)"/>
<use data-text="w" xlink:href="#font_54_119" transform="matrix(0,-8,-8,-0,13.278125,86.55899)"/>
<use data-text="e" xlink:href="#font_54_101" transform="matrix(0,-8,-8,-0,13.278125,80.01499)"/>
<use data-text="r" xlink:href="#font_54_114" transform="matrix(0,-8,-8,-0,13.278125,75.09499)"/>
<use data-text="a" xlink:href="#font_54_97" transform="matrix(0,-8,-8,-0,13.278125,71.80699)"/>
<use data-text="b" xlink:href="#font_54_98" transform="matrix(0,-8,-8,-0,13.278125,66.90299)"/>
<use data-text="l" xlink:href="#font_54_108" transform="matrix(0,-8,-8,-0,13.278125,61.82299)"/>
<use data-text="e" xlink:href="#font_54_101" transform="matrix(0,-8,-8,-0,13.278125,59.59899)"/>
<use data-text=" " xlink:href="#font_54_32" transform="matrix(0,-8,-8,-0,13.278125,54.678995)"/>
<use data-text="e" xlink:href="#font_54_101" transform="matrix(0,-8,-8,-0,13.278125,52.134996)"/>
<use data-text="r" xlink:href="#font_54_114" transform="matrix(0,-8,-8,-0,13.278125,47.214998)"/>
<use data-text="r" xlink:href="#font_54_114" transform="matrix(0,-8,-8,-0,13.278125,44.06762)"/>
<use data-text="o" xlink:href="#font_54_111" transform="matrix(0,-8,-8,-0,13.278125,40.951494)"/>
<use data-text="r" xlink:href="#font_54_114" transform="matrix(0,-8,-8,-0,13.278125,36.05549)"/>
<use data-text="s" xlink:href="#font_54_115" transform="matrix(0,-8,-8,-0,13.278125,32.767488)"/>
<path transform="matrix(1,0,0,-1,0,204.88758)" stroke-width=".8" stroke-linecap="square" stroke-miterlimit="10" stroke-linejoin="miter" fill="none" stroke="#000000" d="M41.85625 37.770097V180.39569"/>
<path transform="matrix(1,0,0,-1,0,204.88758)" stroke-width=".8" stroke-linecap="square" stroke-miterlimit="10" stroke-linejoin="miter" fill="none" stroke="#000000" d="M504.61625 37.770097V180.39569"/>
<path transform="matrix(1,0,0,-1,0,204.88758)" stroke-width=".8" stroke-linecap="square" stroke-miterlimit="10" stroke-linejoin="miter" fill="none" stroke="#000000" d="M41.85625 37.770097H504.61625"/>
<path transform="matrix(1,0,0,-1,0,204.88758)" stroke-width=".8" stroke-linecap="square" stroke-miterlimit="10" stroke-linejoin="miter" fill="none" stroke="#000000" d="M41.85625 180.39569H504.61625"/>
<use data-text="n" xlink:href="#font_54_110" transform="matrix(8,0,0,-8,75.17827,196.0157)"/>
<use data-text="o" xlink:href="#font_54_111" transform="matrix(8,0,0,-8,80.25027,196.0157)"/>
<use data-text="-" xlink:href="#font_54_45" transform="matrix(8,0,0,-8,85.286899,196.0157)"/>
<use data-text="e" xlink:href="#font_54_101" transform="matrix(8,0,0,-8,88.1749,196.0157)"/>
<use data-text="v" xlink:href="#font_54_118" transform="matrix(8,0,0,-8,93.094898,196.0157)"/>
<use data-text="i" xlink:href="#font_54_105" transform="matrix(8,0,0,-8,97.830898,196.0157)"/>
<use data-text="c" xlink:href="#font_54_99" transform="matrix(8,0,0,-8,100.05489,196.0157)"/>
<use data-text="t" xlink:href="#font_54_116" transform="matrix(8,0,0,-8,104.454898,196.0157)"/>
<use data-text="F" xlink:href="#font_54_70" transform="matrix(8,0,0,-8,155.18584,196.0157)"/>
<use data-text="I" xlink:href="#font_54_73" transform="matrix(8,0,0,-8,159.78585,196.0157)"/>
<use data-text="F" xlink:href="#font_54_70" transform="matrix(8,0,0,-8,162.14585,196.0157)"/>
<use data-text="O" xlink:href="#font_54_79" transform="matrix(8,0,0,-8,166.74584,196.0157)"/>
<use data-text="r" xlink:href="#font_54_114" transform="matrix(8,0,0,-8,221.34185,196.0157)"/>
<use data-text="a" xlink:href="#font_54_97" transform="matrix(8,0,0,-8,224.62984,196.0157)"/>
<use data-text="n" xlink:href="#font_54_110" transform="matrix(8,0,0,-8,229.53385,196.0157)"/>
<use data-text="d" xlink:href="#font_54_100" transform="matrix(8,0,0,-8,234.60584,196.0157)"/>
<use data-text="o" xlink:href="#font_54_111" transform="matrix(8,0,0,-8,239.68584,196.0157)"/>
<use data-text="m" xlink:href="#font_54_109" transform="matrix(8,0,0,-8,244.58185,196.0157)"/>
<use data-text="r" xlink:href="#font_54_114" transform="matrix(8,0,0,-8,285.84159,196.0157)"/>
<use data-text="e" xlink:href="#font_54_101" transform="matrix(8,0,0,-8,288.9577,196.0157)"/>
<use data-text="d" xlink:href="#font_54_100" transform="matrix(8,0,0,-8,293.87773,196.0157)"/>
<use data-text="u" xlink:href="#font_54_117" transform="matrix(8,0,0,-8,298.9577,196.0157)"/>
<use data-text="n" xlink:href="#font_54_110" transform="matrix(8,0,0,-8,304.02973,196.0157)"/>
<use data-text="d" xlink:href="#font_54_100" transform="matrix(8,0,0,-8,309.1017,196.0157)"/>
<use data-text="a" xlink:href="#font_54_97" transform="matrix(8,0,0,-8,314.1817,196.0157)"/>
<use data-text="n" xlink:href="#font_54_110" transform="matrix(8,0,0,-8,319.0857,196.0157)"/>
<use data-text="c" xlink:href="#font_54_99" transform="matrix(8,0,0,-8,324.1577,196.0157)"/>
<use data-text="y" xlink:href="#font_54_121" transform="matrix(8,0,0,-8,328.5577,196.0157)"/>
<use data-text="L" xlink:href="#font_54_76" transform="matrix(8,0,0,-8,365.4507,196.0157)"/>
<use data-text="L" xlink:href="#font_54_76" transform="matrix(8,0,0,-8,369.9067,196.0157)"/>
<use data-text="M" xlink:href="#font_54_77" transform="matrix(8,0,0,-8,374.3627,196.0157)"/>
<use data-text="-" xlink:href="#font_54_45" transform="matrix(8,0,0,-8,381.26673,196.0157)"/>
<use data-text="i" xlink:href="#font_54_105" transform="matrix(8,0,0,-8,384.15473,196.0157)"/>
<use data-text="m" xlink:href="#font_54_109" transform="matrix(8,0,0,-8,386.37873,196.0157)"/>
<use data-text="p" xlink:href="#font_54_112" transform="matrix(8,0,0,-8,394.17073,196.0157)"/>
<use data-text="c" xlink:href="#font_54_99" transform="matrix(8,0,0,-8,441.19267,196.0157)"/>
<use data-text="o" xlink:href="#font_54_111" transform="matrix(8,0,0,-8,445.59266,196.0157)"/>
<use data-text="n" xlink:href="#font_54_110" transform="matrix(8,0,0,-8,450.48866,196.0157)"/>
<use data-text="t" xlink:href="#font_54_116" transform="matrix(8,0,0,-8,455.56068,196.0157)"/>
<use data-text="r" xlink:href="#font_54_114" transform="matrix(8,0,0,-8,458.69667,196.0157)"/>
<use data-text="o" xlink:href="#font_54_111" transform="matrix(8,0,0,-8,461.81278,196.0157)"/>
<use data-text="l" xlink:href="#font_54_108" transform="matrix(8,0,0,-8,466.70878,196.0157)"/>
<path transform="matrix(1,0,0,-1,0,204.88758)" d="M175.4925 189.57508H189.4925V194.47509H175.4925Z" fill="#b2182b"/>
<path transform="matrix(1,0,0,-1,0,204.88758)" stroke-width="1" stroke-linecap="butt" stroke-miterlimit="10" stroke-linejoin="miter" fill="none" stroke="#b2182b" d="M175.4925 189.57508H189.4925V194.47509H175.4925Z"/>
<use data-text="i" xlink:href="#font_54_105" transform="matrix(7,0,0,-7,195.0925,15.3125)"/>
<use data-text="r" xlink:href="#font_54_114" transform="matrix(7,0,0,-7,197.0385,15.3125)"/>
<use data-text="r" xlink:href="#font_54_114" transform="matrix(7,0,0,-7,199.80612,15.3125)"/>
<use data-text="e" xlink:href="#font_54_101" transform="matrix(7,0,0,-7,202.5425,15.3125)"/>
<use data-text="v" xlink:href="#font_54_118" transform="matrix(7,0,0,-7,206.8475,15.3125)"/>
<use data-text="e" xlink:href="#font_54_101" transform="matrix(7,0,0,-7,210.9915,15.3125)"/>
<use data-text="r" xlink:href="#font_54_114" transform="matrix(7,0,0,-7,215.29651,15.3125)"/>
<use data-text="s" xlink:href="#font_54_115" transform="matrix(7,0,0,-7,218.17351,15.3125)"/>
<use data-text="i" xlink:href="#font_54_105" transform="matrix(7,0,0,-7,221.8205,15.3125)"/>
<use data-text="b" xlink:href="#font_54_98" transform="matrix(7,0,0,-7,223.76651,15.3125)"/>
<use data-text="l" xlink:href="#font_54_108" transform="matrix(7,0,0,-7,228.2115,15.3125)"/>
<use data-text="e" xlink:href="#font_54_101" transform="matrix(7,0,0,-7,230.1575,15.3125)"/>
<path transform="matrix(1,0,0,-1,0,204.88758)" d="M248.48313 189.57508H262.48313V194.47509H248.48313Z" fill="#2166ac"/>
<path transform="matrix(1,0,0,-1,0,204.88758)" stroke-width="1" stroke-linecap="butt" stroke-miterlimit="10" stroke-linejoin="miter" fill="none" stroke="#2166ac" d="M248.48313 189.57508H262.48313V194.47509H248.48313Z"/>
<use data-text="r" xlink:href="#font_54_114" transform="matrix(7,0,0,-7,268.08314,15.3125)"/>
<use data-text="e" xlink:href="#font_54_101" transform="matrix(7,0,0,-7,270.81953,15.3125)"/>
<use data-text="c" xlink:href="#font_54_99" transform="matrix(7,0,0,-7,275.1245,15.3125)"/>
<use data-text="o" xlink:href="#font_54_111" transform="matrix(7,0,0,-7,278.97453,15.3125)"/>
<use data-text="v" xlink:href="#font_54_118" transform="matrix(7,0,0,-7,283.2585,15.3125)"/>
<use data-text="e" xlink:href="#font_54_101" transform="matrix(7,0,0,-7,287.4025,15.3125)"/>
<use data-text="r" xlink:href="#font_54_114" transform="matrix(7,0,0,-7,291.70753,15.3125)"/>
<use data-text="a" xlink:href="#font_54_97" transform="matrix(7,0,0,-7,294.5845,15.3125)"/>
<use data-text="b" xlink:href="#font_54_98" transform="matrix(7,0,0,-7,298.87553,15.3125)"/>
<use data-text="l" xlink:href="#font_54_108" transform="matrix(7,0,0,-7,303.3205,15.3125)"/>
<use data-text="e" xlink:href="#font_54_101" transform="matrix(7,0,0,-7,305.2665,15.3125)"/>
<path transform="matrix(1,0,0,-1,0,204.88758)" d="M323.59877 189.57508H337.59877V194.47509H323.59877Z" fill="#999999"/>
<path transform="matrix(1,0,0,-1,0,204.88758)" stroke-width="1" stroke-linecap="butt" stroke-miterlimit="10" stroke-linejoin="miter" fill="none" stroke="#999999" d="M323.59877 189.57508H337.59877V194.47509H323.59877Z"/>
<use data-text="r" xlink:href="#font_54_114" transform="matrix(7,0,0,-7,343.19877,15.3125)"/>
<use data-text="e" xlink:href="#font_54_101" transform="matrix(7,0,0,-7,345.93516,15.3125)"/>
<use data-text="s" xlink:href="#font_54_115" transform="matrix(7,0,0,-7,350.24015,15.3125)"/>
<use data-text="i" xlink:href="#font_54_105" transform="matrix(7,0,0,-7,353.88716,15.3125)"/>
<use data-text="d" xlink:href="#font_54_100" transform="matrix(7,0,0,-7,355.83314,15.3125)"/>
<use data-text="u" xlink:href="#font_54_117" transform="matrix(7,0,0,-7,360.27815,15.3125)"/>
<use data-text="a" xlink:href="#font_54_97" transform="matrix(7,0,0,-7,364.71614,15.3125)"/>
<use data-text="l" xlink:href="#font_54_108" transform="matrix(7,0,0,-7,369.00715,15.3125)"/>
</svg>
